<svg aria-hidden="true" style="width:0;height:0;position:absolute;overflow:hidden" xmlns="http://www.w3.org/2000/svg"><defs><symbol id="icon-icons8-search" viewBox="0 0 21 32"><path d="M8 7.111c-3.426 0-6.222 2.796-6.222 6.222S4.574 19.555 8 19.555c1.554 0 2.973-.58 4.066-1.528l.378.378v1.149l5.333 5.333 1.778-1.778-5.333-5.333h-1.149l-.378-.378a6.187 6.187 0 0 0 1.528-4.066c0-3.426-2.796-6.222-6.222-6.222zm0 1.778c2.465 0 4.444 1.979 4.444 4.444S10.465 17.777 8 17.777s-4.444-1.979-4.444-4.444S5.535 8.889 8 8.889z"/></symbol></defs></svg>