<svg aria-hidden="true" style="position: absolute; width: 0; height: 0; overflow: hidden;" version="1.1" xmlns="http://www.w3.org/2000/svg" xmlns:xlink="http://www.w3.org/1999/xlink">
<defs>
<symbol id="icon-icons8-search" viewBox="0 0 21 32">
<path d="M8 7.111c-3.426 0-6.222 2.796-6.222 6.222s2.796 6.222 6.222 6.222c1.554 0 2.973-0.58 4.066-1.528l0.378 0.378v1.149l5.333 5.333 1.778-1.778-5.333-5.333h-1.149l-0.378-0.378c0.948-1.093 1.528-2.512 1.528-4.066 0-3.426-2.796-6.222-6.222-6.222zM8 8.889c2.465 0 4.444 1.979 4.444 4.444s-1.979 4.444-4.444 4.444c-2.465 0-4.444-1.979-4.444-4.444s1.979-4.444 4.444-4.444z"></path>
</symbol>
</defs>
</svg>
